<svg xmlns="http://www.w3.org/2000/svg" width="34" height="34" viewBox="0 0 82 80">
  <g id="ico-fb-mob" transform="translate(-586 -461)">
    <rect id="border" width="82" height="80" rx="10" transform="translate(586 461)" fill="#fff"/>
    <path id="fb" d="M24.5,3A21.285,21.285,0,0,0,3,24.034,21.181,21.181,0,0,0,21.288,44.808l1.122.166V28.4H17.331V25.035H22.41V20.566c0-2.752.675-4.564,1.792-5.7a6.756,6.756,0,0,1,5.066-1.711,21.735,21.735,0,0,1,3.231.19V16.1H30.108a3.521,3.521,0,0,0-3.048,1.727,6.606,6.606,0,0,0-.758,3.365v3.841h5.984L31.753,28.4H26.3V45l1.109-.148A21.19,21.19,0,0,0,46,24.034,21.285,21.285,0,0,0,24.5,3Zm0,1.912A19.322,19.322,0,0,1,44.045,24.034,19.164,19.164,0,0,1,28.256,42.709V30.31h5.173l1.136-7.189H28.256V21.191a5.087,5.087,0,0,1,.5-2.414,1.318,1.318,0,0,1,1.353-.766h4.346v-6.4l-.847-.112a30.449,30.449,0,0,0-4.339-.26,8.78,8.78,0,0,0-6.474,2.3c-1.565,1.593-2.338,3.965-2.338,7.027v2.556H15.376v7.189h5.079V42.649a19.155,19.155,0,0,1-15.5-18.615A19.322,19.322,0,0,1,24.5,4.912Z" transform="translate(603 477)" fill="#1e2022" stroke="#1e2022" stroke-width="1"/>
  </g>
</svg>
