<svg xmlns="http://www.w3.org/2000/svg" width="28" height="28" viewBox="0 0 28 28">
  <g id="ico-inst" transform="translate(-586 -622.119)">
    <rect id="border" width="28" height="28" rx="4" transform="translate(586 622.119)" fill="#fff"/>
    <path id="inst" d="M8.318,3A5.325,5.325,0,0,0,3,8.318v7.364A5.325,5.325,0,0,0,8.318,21h7.364A5.325,5.325,0,0,0,21,15.682V8.318A5.325,5.325,0,0,0,15.682,3Zm0,.818h7.364a4.494,4.494,0,0,1,4.5,4.5v7.364a4.494,4.494,0,0,1-4.5,4.5H8.318a4.494,4.494,0,0,1-4.5-4.5V8.318A4.494,4.494,0,0,1,8.318,3.818Zm8.591,2.455a.818.818,0,1,0,.818.818A.818.818,0,0,0,16.909,6.273ZM12,7.5A4.5,4.5,0,1,0,16.5,12,4.506,4.506,0,0,0,12,7.5Zm0,.818A3.682,3.682,0,1,1,8.318,12,3.676,3.676,0,0,1,12,8.318Z" transform="translate(588 624.119)" fill="#1e2022"/>
  </g>
</svg>
