<svg xmlns="http://www.w3.org/2000/svg" width="28" height="28" viewBox="0 0 28 28">
  <g id="ico-so" transform="translate(-887 -852.193)">
    <rect id="border" width="28" height="28" rx="4" transform="translate(887 852.193)" fill="#fff"/>
    <g id="society6" transform="translate(892 859.193)">
      <path id="Path_1" data-name="Path 1" d="M63.077,61.29c-1.257,0-6.232,1.206-8.051,5.576-.225-.3-1.139-1.315-3.488-1.315-1.9,0-3.938.685-3.938,2.739,0,2.739,3.938,2.891,3.938,4.565a1.788,1.788,0,0,1-1.826,1.826s-.281-2.435-2.107-2.435a1.111,1.111,0,0,0-1.125,1.217,1.58,1.58,0,0,0,.62,1.127c.7.528,1.623.7,3.458.7,3.15,0,4.019-1.49,4.106-2.8a4.079,4.079,0,0,0,4.041,2.8c2.25,0,4.463-1.982,5.2-3.575.631-1.37,1.545-5.555-2.25-5.555a6.336,6.336,0,0,0-3.375.99,6.71,6.71,0,0,1,1.978-3.5,3.929,3.929,0,0,1,2.179-1.175c.844-.122,1.115-.282,1.323-.576C64.155,61.362,63.784,61.29,63.077,61.29Z" transform="translate(-46.48 -61.29)" fill="#1e2022"/>
      <path id="Path_2" data-name="Path 2" d="M83.434,101.286s-.247,2.592,1.944,2.592a1.709,1.709,0,0,0,.907-.306,9.654,9.654,0,0,0-.259,2.249c0,.159.013.3.021.456a.294.294,0,0,0-.021-.051c-.972-1.62-4.535-1.62-4.535-3.321S83.434,101.286,83.434,101.286Z" transform="translate(-77.731 -96.574)" fill="#fff"/>
      <path id="Path_3" data-name="Path 3" d="M144.661,116.289c1.529-.014,2.161,1.593,1.744,3.725-.259,1.327-1.166,3.369-2.577,3.4-.777.016-1.748-1.346-1.748-3.163C142.08,117.807,143.578,116.3,144.661,116.289Z" transform="translate(-131.771 -110.064)" fill="#fff"/>
    </g>
  </g>
</svg>
