<svg xmlns="http://www.w3.org/2000/svg" width="82" height="80" viewBox="0 0 82 80">
  <g id="ico-so-mob" transform="translate(-887 -852)">
    <rect id="border" width="82" height="80" rx="10" transform="translate(887 852)" fill="#fff"/>
    <g id="society6" transform="translate(899.05 871)">
      <path id="Path_1" data-name="Path 1" d="M99.959,61.29c-4.049,0-20.08,3.619-25.942,16.727-.725-.906-3.669-3.944-11.238-3.944-6.112,0-12.688,2.056-12.688,8.217,0,8.217,12.688,8.674,12.688,13.7,0,5.478-5.884,5.478-5.884,5.478s-.906-7.3-6.79-7.3a3.474,3.474,0,0,0-3.625,3.652,4.672,4.672,0,0,0,2,3.382c2.244,1.585,5.231,2.1,11.144,2.1,10.151,0,12.949-4.47,13.232-8.4,2.317,6.362,8.222,8.4,13.022,8.4,7.25,0,14.381-5.946,16.752-10.726,2.034-4.109,4.977-16.665-7.25-16.665A21.535,21.535,0,0,0,84.5,78.868c0-.23.935-5.478,6.373-10.5A13.007,13.007,0,0,1,97.9,64.844c2.719-.365,3.593-.847,4.263-1.727C103.432,61.505,102.236,61.29,99.959,61.29Z" transform="translate(-46.53 -61.29)" fill="#1e2022"/>
      <path id="Path_2" data-name="Path 2" d="M87.005,101.287s-.7,7.354,5.515,7.354a4.85,4.85,0,0,0,2.574-.868,27.393,27.393,0,0,0-.735,6.383c0,.452.037.864.059,1.294a.834.834,0,0,0-.059-.143c-2.758-4.6-12.869-4.6-12.869-9.424S87.005,101.287,87.005,101.287Z" transform="translate(-68.903 -86.728)" fill="#fff"/>
      <path id="Path_3" data-name="Path 3" d="M149.4,116.29c4.339-.04,6.133,4.519,4.949,10.571-.735,3.765-3.309,9.56-7.313,9.652-2.206.044-4.96-3.82-4.96-8.975C142.08,120.6,146.33,116.319,149.4,116.29Z" transform="translate(-107.608 -96.351)" fill="#fff"/>
    </g>
  </g>
</svg>
