<svg xmlns="http://www.w3.org/2000/svg" width="82" height="80" viewBox="0 0 82 80">
  <g id="ico-tw-mob" transform="translate(-586 -783)">
    <rect id="bordrer" width="82" height="80" rx="10" transform="translate(586 783)" fill="#fff"/>
    <path id="twitter" d="M35.57,5.469A11.2,11.2,0,0,0,24.3,16.569a10.734,10.734,0,0,0,.13,1.088,28.078,28.078,0,0,1-19.1-9.948,1.052,1.052,0,0,0-.9-.388,1.036,1.036,0,0,0-.824.516,10.732,10.732,0,0,0,.747,12.123c-.268-.116-.56-.18-.812-.32a1.05,1.05,0,0,0-1.019.024,1.026,1.026,0,0,0-.508.872v.128a11,11,0,0,0,4.905,9.053.814.814,0,0,1-.1,0,1.049,1.049,0,0,0-.958.332,1.016,1.016,0,0,0-.211.98,11.223,11.223,0,0,0,7.8,7.261,19.649,19.649,0,0,1-9.972,2.719,19.817,19.817,0,0,1-2.306-.128,1.038,1.038,0,0,0-1.117.672,1.013,1.013,0,0,0,.434,1.216,30.316,30.316,0,0,0,16.242,4.7,29.394,29.394,0,0,0,22.414-9.692,30.535,30.535,0,0,0,7.764-20.024c0-.292-.024-.576-.032-.864A21.588,21.588,0,0,0,51.812,11.8a1.009,1.009,0,0,0-.069-1.24,1.046,1.046,0,0,0-1.23-.264c-.536.236-1.161.26-1.722.448a10.813,10.813,0,0,0,1.754-3.2A1.02,1.02,0,0,0,50.2,6.436a1.055,1.055,0,0,0-1.178-.072A19.662,19.662,0,0,1,43.2,8.572,11.278,11.278,0,0,0,35.57,5.469Zm0,2.047a9.269,9.269,0,0,1,6.724,2.879,1.057,1.057,0,0,0,.975.288,21.641,21.641,0,0,0,3.9-1.152,9.2,9.2,0,0,1-2.664,2.4,1.016,1.016,0,0,0-.524,1.259,1.04,1.04,0,0,0,1.206.66,21.741,21.741,0,0,0,2.956-.8,19.65,19.65,0,0,1-2.924,2.559,1.014,1.014,0,0,0-.422.9c.016.416.032.828.032,1.248A28.546,28.546,0,0,1,37.584,36.4a27.189,27.189,0,0,1-20.854,9.021,28.162,28.162,0,0,1-11.6-2.5,21.714,21.714,0,0,0,11.694-4.382,1.013,1.013,0,0,0,.337-1.124,1.037,1.037,0,0,0-.954-.7,9.119,9.119,0,0,1-7.829-4.8h.162a11.5,11.5,0,0,0,2.989-.384,1.02,1.02,0,0,0-.065-1.983,9.05,9.05,0,0,1-7.114-7.389,11.185,11.185,0,0,0,3.281.672,1.039,1.039,0,0,0,1.052-.708,1.014,1.014,0,0,0-.434-1.18A9.028,9.028,0,0,1,4.158,13.4a8.779,8.779,0,0,1,.715-3.263A30.189,30.189,0,0,0,25.565,19.9a1.06,1.06,0,0,0,.853-.36,1.011,1.011,0,0,0,.219-.888,9.007,9.007,0,0,1-.26-2.079A9.1,9.1,0,0,1,35.57,7.516Z" transform="translate(601.008 796.531)" fill="#1e2022" stroke="#1e2022" stroke-width="1"/>
  </g>
</svg>
