<svg xmlns="http://www.w3.org/2000/svg" width="82" height="80" viewBox="0 0 82 80">
  <g id="ico-et-mob" transform="translate(-887 -716)">
    <rect id="border" width="82" height="80" rx="10" transform="translate(887 716)" fill="#fff"/>
    <path id="etsy" d="M18.258,1H1.863A.869.869,0,0,0,1,1.875v1.75a.869.869,0,0,0,.863.875H4.452A2.607,2.607,0,0,1,7.04,7.125v29.75A2.607,2.607,0,0,1,4.452,39.5H1.863A.869.869,0,0,0,1,40.375v1.75A.869.869,0,0,0,1.863,43H33.306a1.731,1.731,0,0,0,1.675-1.326l1.993-9.837a.885.885,0,0,0-.157-.751.859.859,0,0,0-.68-.337H34.411a.864.864,0,0,0-.819.6l-2.338,5.024A4.323,4.323,0,0,1,27.121,39.5H16.532a2.607,2.607,0,0,1-2.589-2.625V23.75h6.9a4.345,4.345,0,0,1,4.315,4.375V29H27.75V14.125H25.162v1.75a4.345,4.345,0,0,1-4.315,4.375h-6.9V7.125A2.607,2.607,0,0,1,16.532,4.5H26.887A4.345,4.345,0,0,1,31.2,8.875v3.5a.869.869,0,0,0,.863.875h.978A.867.867,0,0,0,33.9,12.5L35.235,3a1.767,1.767,0,0,0-.4-1.394,1.716,1.716,0,0,0-1.3-.6Z" transform="translate(909 734)" fill="#1e2022"/>
  </g>
</svg>
