<svg xmlns="http://www.w3.org/2000/svg" width="28" height="28" viewBox="0 0 28 28">
  <g id="ico-tw" transform="translate(-585.982 -783.154)">
    <rect id="bordrer" width="28" height="28" rx="4" transform="translate(585.982 783.154)" fill="#fff"/>
    <path id="twitter" d="M12.307,5.469a3.809,3.809,0,0,0-3.9,3.7,3.451,3.451,0,0,0,.045.363A9.841,9.841,0,0,1,1.839,6.215a.371.371,0,0,0-.311-.129.36.36,0,0,0-.285.172A3.527,3.527,0,0,0,.714,8.113,3.565,3.565,0,0,0,1.5,10.3c-.093-.039-.194-.06-.281-.107a.376.376,0,0,0-.353.008.34.34,0,0,0-.176.291v.043a3.634,3.634,0,0,0,1.7,3.018.292.292,0,0,1-.034,0,.371.371,0,0,0-.332.111.329.329,0,0,0-.073.327,3.83,3.83,0,0,0,2.7,2.42,7,7,0,0,1-3.452.906,7.121,7.121,0,0,1-.8-.043.361.361,0,0,0-.387.224.332.332,0,0,0,.15.405,10.791,10.791,0,0,0,5.622,1.567,10.355,10.355,0,0,0,7.759-3.231,9.968,9.968,0,0,0,2.687-6.675c0-.1-.008-.192-.011-.288a7.329,7.329,0,0,0,1.709-1.7.327.327,0,0,0-.024-.413.372.372,0,0,0-.426-.088c-.186.079-.4.087-.6.149a3.567,3.567,0,0,0,.607-1.066.333.333,0,0,0-.121-.371.377.377,0,0,0-.408-.024A6.968,6.968,0,0,1,14.95,6.5,3.984,3.984,0,0,0,12.307,5.469Zm0,.682a3.268,3.268,0,0,1,2.328.96.375.375,0,0,0,.337.1,7.71,7.71,0,0,0,1.349-.384,3.148,3.148,0,0,1-.922.8.334.334,0,0,0-.181.42.363.363,0,0,0,.417.22A7.757,7.757,0,0,0,16.659,8a6.732,6.732,0,0,1-1.012.853.333.333,0,0,0-.146.3c.006.139.011.276.011.416A9.319,9.319,0,0,1,13,15.779a9.577,9.577,0,0,1-7.219,3.007,10.066,10.066,0,0,1-4.014-.832,7.691,7.691,0,0,0,4.048-1.461.33.33,0,0,0,.117-.375.358.358,0,0,0-.33-.233,3.173,3.173,0,0,1-2.71-1.6h.056a4.127,4.127,0,0,0,1.034-.128.337.337,0,0,0-.022-.661A3.071,3.071,0,0,1,1.5,11.035a4,4,0,0,0,1.136.224A.36.36,0,0,0,3,11.023a.332.332,0,0,0-.15-.393A2.983,2.983,0,0,1,1.434,8.113a2.835,2.835,0,0,1,.247-1.088,10.616,10.616,0,0,0,7.163,3.252.374.374,0,0,0,.3-.12.328.328,0,0,0,.076-.3,2.9,2.9,0,0,1-.09-.693A3.1,3.1,0,0,1,12.307,6.151Z" transform="translate(590.99 784.685)" fill="#1e2022"/>
  </g>
</svg>
