<svg xmlns="http://www.w3.org/2000/svg" width="28" height="28" viewBox="0 0 28 28">
  <g id="ico-fb" transform="translate(-586 -460.683)">
    <rect id="border" width="28" height="28" rx="4" transform="translate(586 460.683)" fill="#fff"/>
    <path id="fb" d="M12,3a9.01,9.01,0,0,0-1.345,17.918l.47.071v-7.1H9V12.443h2.126V10.528a3.4,3.4,0,0,1,.75-2.443A2.788,2.788,0,0,1,14,7.352a8.89,8.89,0,0,1,1.353.082v1.18h-1a1.468,1.468,0,0,0-1.276.74,2.887,2.887,0,0,0-.317,1.442v1.646h2.5l-.223,1.442H12.754V21l.464-.063A9.01,9.01,0,0,0,12,3Zm0,.819a8.175,8.175,0,0,1,1.572,16.2V14.7h2.165l.475-3.081H13.572V10.8a2.224,2.224,0,0,1,.209-1.035.55.55,0,0,1,.567-.328h1.819V6.692l-.355-.048A12.454,12.454,0,0,0,14,6.532a3.625,3.625,0,0,0-2.71.984,4.207,4.207,0,0,0-.979,3.011v1.1H8.181V14.7h2.126v5.287A8.174,8.174,0,0,1,12,3.819Z" transform="translate(588 462.683)" fill="#1e2022"/>
  </g>
</svg>
