<svg xmlns="http://www.w3.org/2000/svg" width="28" height="28" viewBox="0 0 28 28">
  <g id="ico-et" transform="translate(-887 -715.672)">
    <rect id="border" width="28" height="28" rx="4" transform="translate(887 715.672)" fill="#fff"/>
    <path id="etsy" d="M8.67,1H1.384A.379.379,0,0,0,1,1.375v.75a.379.379,0,0,0,.384.375H2.534A1.138,1.138,0,0,1,3.685,3.625v12.75A1.138,1.138,0,0,1,2.534,17.5H1.384A.379.379,0,0,0,1,17.875v.75A.379.379,0,0,0,1.384,19H15.358a.764.764,0,0,0,.744-.568l.886-4.216a.369.369,0,0,0-.07-.322.387.387,0,0,0-.3-.144h-.767a.383.383,0,0,0-.364.256L14.447,16.16a1.913,1.913,0,0,1-1.837,1.34H7.9a1.138,1.138,0,0,1-1.151-1.125V10.75H9.821a1.9,1.9,0,0,1,1.918,1.875V13h1.151V6.625H11.739v.75A1.9,1.9,0,0,1,9.821,9.25H6.753V3.625A1.138,1.138,0,0,1,7.9,2.5h4.6a1.9,1.9,0,0,1,1.918,1.875v1.5a.379.379,0,0,0,.384.375h.435a.381.381,0,0,0,.38-.322l.595-4.072a.739.739,0,0,0-.18-.6A.775.775,0,0,0,15.456,1Z" transform="translate(892 719.672)" fill="#1e2022"/>
  </g>
</svg>
